<svg xmlns="http://www.w3.org/2000/svg" viewBox="0 0 100 100" width="100" height="100">
  <g>
    
    <path d="M50 22 C 48.5 22 47.5 23 47.5 24.5 L 47.5 75 C 47.5 77 48.5 78 50 78 C 51.5 78 52.5 77 52.5 75 L 52.5 24.5 C 52.5 23 51.5 22 50 22 Z" fill="#1A1A1A"></path>
    
    <path d="M50 24 C 46 18 42 16 40 14" stroke="#1A1A1A" stroke-width="1.2" fill="none" stroke-linecap="round"></path>
    <path d="M50 24 C 54 18 58 16 60 14" stroke="#1A1A1A" stroke-width="1.2" fill="none" stroke-linecap="round"></path>
    
    <path d="M47 32 C 30 22 15 28 12 42 C 10 52 20 52 26 50 C 32 48 40 45 47 44 Z" fill="#F98008"></path>
    
    <path d="M47 32 C 30 22 15 28 12 42 C 10 52 20 52 26 50 C 32 48 40 45 47 44" stroke="#1A1A1A" stroke-width="2" fill="none" stroke-linejoin="round"></path>
    
    <path d="M47 48 C 32 50 20 58 18 68 C 17 75 24 78 32 74 C 40 70 46 62 48 56 Z" fill="#F98008"></path>
    <path d="M47 48 C 32 50 20 58 18 68 C 17 75 24 78 32 74 C 40 70 46 62 48 56" stroke="#1A1A1A" stroke-width="2" fill="none" stroke-linejoin="round"></path>
    
    <path d="M53 32 C 70 22 85 28 88 42 C 90 52 80 52 74 50 C 68 48 60 45 53 44 Z" fill="#F98008"></path>
    <path d="M53 32 C 70 22 85 28 88 42 C 90 52 80 52 74 50 C 68 48 60 45 53 44" stroke="#1A1A1A" stroke-width="2" fill="none" stroke-linejoin="round"></path>
    
    <path d="M53 48 C 68 50 80 58 82 68 C 83 75 76 78 68 74 C 60 70 54 62 52 56 Z" fill="#F98008"></path>
    <path d="M53 48 C 68 50 80 58 82 68 C 83 75 76 78 68 74 C 60 70 54 62 52 56" stroke="#1A1A1A" stroke-width="2" fill="none" stroke-linejoin="round"></path>
    
    <circle cx="22" cy="42" r="1.6" fill="#fff"></circle><circle cx="30" cy="38" r="1.3" fill="#fff"></circle>
    <circle cx="78" cy="42" r="1.6" fill="#fff"></circle><circle cx="70" cy="38" r="1.3" fill="#fff"></circle>
    <circle cx="28" cy="66" r="1.3" fill="#fff"></circle>
    <circle cx="72" cy="66" r="1.3" fill="#fff"></circle>
  </g>
</svg>